HIERARCHY
ROOT Hips
{
	OFFSET 0.000000 0.000000 0.000000
	CHANNELS 6 Xposition Yposition Zposition Zrotation Yrotation Xrotation 
	JOINT LHipJoint
	{
		OFFSET 0.000000 0.000000 0.000000
		CHANNELS 3 Zrotation Yrotation Xrotation
		JOINT LeftUpLeg
		{
			OFFSET 1.363060 -1.794630 0.839290
			CHANNELS 3 Zrotation Yrotation Xrotation
			JOINT LeftLeg
			{
				OFFSET 2.448110 -6.726130 0.000000
				CHANNELS 3 Zrotation Yrotation Xrotation
				JOINT LeftFoot
				{
					OFFSET 2.562200 -7.039590 0.000000
					CHANNELS 3 Zrotation Yrotation Xrotation
					JOINT LeftToeBase
					{
						OFFSET 0.157640 -0.433110 2.322550
						CHANNELS 3 Zrotation Yrotation Xrotation
						End Site
						{
							OFFSET 0.000000 0.000000 0.000000
						}
					}
				}
			}
		}
	}
	JOINT RHipJoint
	{
		OFFSET 0.000000 0.000000 0.000000
		CHANNELS 3 Zrotation Yrotation Xrotation
		JOINT RightUpLeg
		{
			OFFSET -1.305520 -1.794630 0.839290
			CHANNELS 3 Zrotation Yrotation Xrotation
			JOINT RightLeg
			{
				OFFSET -2.542530 -6.985550 0.000000
				CHANNELS 3 Zrotation Yrotation Xrotation
				JOINT RightFoot
				{
					OFFSET -2.568260 -7.056230 0.000000
					CHANNELS 3 Zrotation Yrotation Xrotation
					JOINT RightToeBase
					{
						OFFSET -0.164730 -0.452590 2.363150
						CHANNELS 3 Zrotation Yrotation Xrotation
						End Site
						{
							OFFSET 0.000000 0.000000 0.000000
						}
					}
				}
			}
		}
	}
	JOINT LowerBack
	{
		OFFSET 0.000000 0.000000 0.000000
		CHANNELS 3 Zrotation Yrotation Xrotation
		JOINT Spine
		{
			OFFSET 0.028270 2.035590 -0.193380
			CHANNELS 3 Zrotation Yrotation Xrotation
			JOINT Spine1
			{
				OFFSET 0.056720 2.048850 -0.042750
				CHANNELS 3 Zrotation Yrotation Xrotation
				JOINT Neck
				{
					OFFSET 0.000000 0.000000 0.000000
					CHANNELS 3 Zrotation Yrotation Xrotation
					JOINT Neck1
					{
						OFFSET -0.054170 1.746240 0.172020
						CHANNELS 3 Zrotation Yrotation Xrotation
						JOINT Head
						{
							OFFSET 0.104070 1.761360 -0.123970
							CHANNELS 3 Zrotation Yrotation Xrotation
							End Site
							{
								OFFSET 0.000000 0.000000 0.000000
							}
						}
					}
				}
				JOINT LeftShoulder
				{
					OFFSET 0.000000 0.000000 0.000000
					CHANNELS 3 Zrotation Yrotation Xrotation
					JOINT LeftArm
					{
						OFFSET 3.362410 1.200890 -0.311210
						CHANNELS 3 Zrotation Yrotation Xrotation
						JOINT LeftForeArm
						{
							OFFSET 4.983000 -0.000000 -0.000000
							CHANNELS 3 Zrotation Yrotation Xrotation
							JOINT LeftHand
							{
								OFFSET 3.483560 -0.000000 -0.000000
								CHANNELS 3 Zrotation Yrotation Xrotation
								JOINT LeftFingerBase
								{
									OFFSET 0.000000 0.000000 0.000000
									CHANNELS 3 Zrotation Yrotation Xrotation
									JOINT LeftHandIndex1
									{
										OFFSET 0.715260 -0.000000 -0.000000
										CHANNELS 3 Zrotation Yrotation Xrotation
										End Site
										{
											OFFSET 0.000000 0.000000 0.000000
										}
									}
								}
								JOINT LThumb
								{
									OFFSET 0.000000 0.000000 0.000000
									CHANNELS 3 Zrotation Yrotation Xrotation
									End Site
									{
										OFFSET 0.000000 0.000000 0.000000
									}
								}
							}
						}
					}
				}
				JOINT RightShoulder
				{
					OFFSET 0.000000 0.000000 0.000000
					CHANNELS 3 Zrotation Yrotation Xrotation
					JOINT RightArm
					{
						OFFSET -3.136600 1.374050 -0.404650
						CHANNELS 3 Zrotation Yrotation Xrotation
						JOINT RightForeArm
						{
							OFFSET -5.241900 -0.000000 -0.000000
							CHANNELS 3 Zrotation Yrotation Xrotation
							JOINT RightHand
							{
								OFFSET -3.444170 -0.000000 -0.000000
								CHANNELS 3 Zrotation Yrotation Xrotation
								JOINT RightFingerBase
								{
									OFFSET 0.000000 0.000000 0.000000
									CHANNELS 3 Zrotation Yrotation Xrotation
									JOINT RightHandIndex1
									{
										OFFSET -0.622530 -0.000000 -0.000000
										CHANNELS 3 Zrotation Yrotation Xrotation
										End Site
										{
											OFFSET 0.000000 0.000000 0.000000
										}
									}
								}
								JOINT RThumb
								{
									OFFSET 0.000000 0.000000 0.000000
									CHANNELS 3 Zrotation Yrotation Xrotation
									End Site
									{
										OFFSET 0.000000 0.000000 0.000000
									}
								}
							}
						}
					}
				}
			}
		}
	}
}
MOTION
Frames: 6
Frame Time: 0.008333
24.889269 18.470805 24.339443 -9.153315 71.811156 -8.183573 -3.496192 -0.287572 1.989014 -9.572783 -0.591191 -2.476137 -0.269722 6.577400 17.800007 -0.361690 3.715768 -4.299739 0.149900 -2.494600 -6.874700 0.358723 0.187561 -0.955820 19.681717 -3.592359 -1.395984 -0.615433 -6.644375 17.690768 1.187157 -9.564684 -9.168358 -0.000100 -0.066500 0.182700 0.614082 0.473427 2.534631 0.818358 0.231007 -3.568505 4.040942 0.337334 -1.627140 -6.336460 -2.944286 -11.691376 5.555427 -3.285575 11.583312 3.389700 -1.761300 8.457100 -5.432023 1.015054 -1.702986 -51.323098 -43.916593 28.836780 90.165568 -61.476448 -62.778969 0.812866 -0.462841 20.938486 11.524835 39.222870 6.795000 -7.125000 0.000000 0.000000 -33.632900 67.090200 -18.741700 2.103880 -0.695604 -0.955014 44.987632 42.372192 28.178853 -107.062930 57.598813 -73.965701 -0.313500 -0.195902 9.942272 -9.168751 39.496526 -5.718400 7.125000 0.000000 0.000000 13.513200 9.169500 15.907300 
24.897534 18.465176 24.338453 -9.125187 71.794309 -8.164888 -3.499158 -0.281844 2.000728 -9.606443 -0.649374 -2.442534 -0.271941 6.579036 17.803436 -0.402424 3.893529 -4.310603 0.143900 -2.445000 -6.737300 0.363378 0.184398 -0.940503 19.654907 -3.594378 -1.393479 -0.621262 -6.658673 17.739711 1.162442 -9.440419 -9.239969 -0.000100 0.051500 -0.141400 0.668302 0.401086 2.509307 0.819148 0.134265 -3.630771 3.999090 0.302365 -1.873757 -6.384661 -2.881586 -11.291323 5.670373 -3.207903 11.560420 3.469100 -1.725500 8.355800 -5.460386 1.011234 -1.711515 -51.253768 -43.490723 29.105948 90.219183 -61.465814 -62.816562 0.816227 -0.458368 20.217099 12.400031 39.096265 7.347900 -7.125000 0.000000 0.000000 -32.537900 67.265800 -18.205100 2.094216 -0.663050 -0.949214 45.196231 42.334694 28.708450 -107.055539 57.571549 -73.952751 -0.310513 -0.200194 9.665626 -9.617764 39.363149 -5.995500 7.125000 0.000000 0.000000 13.270700 9.111700 15.595800 
24.907001 18.467450 24.336729 -9.285084 71.694709 -8.307043 -3.501506 -0.272462 2.010390 -9.559850 -0.802550 -2.361571 -0.277339 6.572640 17.781680 -0.443794 4.072534 -4.291773 0.130100 -2.324800 -6.404300 0.360771 0.180004 -0.931282 19.726773 -3.466553 -1.385721 -0.630264 -6.691321 17.835667 1.169977 -9.499354 -9.361759 0.000000 0.014100 -0.038700 0.783975 0.387748 2.425790 0.834370 0.115133 -3.670938 4.014469 0.301512 -2.019619 -6.542986 -2.873997 -10.902321 5.767861 -3.176933 11.493062 3.561100 -1.720200 8.237300 -5.480932 1.019039 -1.712930 -51.211180 -43.193931 29.319427 90.145124 -61.457007 -62.750892 0.828396 -0.462217 19.575789 13.595964 38.443121 8.013100 -7.125000 0.000000 0.000000 -30.343600 67.106400 -16.773900 2.085926 -0.642807 -0.935160 45.321479 42.172031 29.017432 -106.959723 57.573235 -73.861763 -0.309496 -0.203565 9.479620 -10.085400 39.325143 -6.294900 7.125000 0.000000 0.000000 13.029200 9.150200 15.304800 
24.915455 18.469282 24.338488 -8.932789 71.572261 -8.014123 -3.505755 -0.273740 2.008642 -9.676509 -0.853094 -2.283206 -0.270501 6.604868 17.865460 -0.493691 4.290127 -4.294713 0.201800 -2.892500 -7.979500 0.360552 0.179587 -0.930329 19.641925 -3.269202 -1.223487 -0.622029 -6.669873 17.772638 1.206671 -9.705119 -9.418953 0.000000 0.009600 -0.026400 0.634738 0.432038 2.291937 0.835798 0.162104 -3.674496 4.124812 0.328398 -2.001239 -6.627942 -2.880128 -10.656874 5.869146 -3.181770 11.487638 3.621000 -1.722600 8.168400 -5.478325 1.037907 -1.700648 -51.298400 -43.272520 29.557759 89.468595 -61.423540 -62.189112 0.846126 -0.484975 19.159142 14.703808 37.173683 8.483000 -7.125000 0.000000 0.000000 -27.477000 66.383800 -14.637200 2.080154 -0.643620 -0.924616 45.315309 42.171062 29.129554 -106.723720 57.615814 -73.642721 -0.309544 -0.206687 9.322971 -10.490714 39.198932 -6.541200 7.125000 0.000000 0.000000 12.809600 9.094500 15.024000 
24.924431 18.463569 24.343040 -9.123623 71.355427 -8.287935 -3.496699 -0.261033 2.023757 -9.585070 -0.683949 -2.216676 -0.254864 6.633822 17.952928 -0.513351 4.381513 -4.376232 0.295900 -3.497600 -9.667300 0.348674 0.173799 -0.933420 19.795092 -3.079598 -0.984096 -0.608676 -6.630415 17.657495 1.237443 -9.861775 -9.358488 -0.001300 0.231300 -0.635500 0.688419 0.491817 2.230735 0.851017 0.239941 -3.680855 4.177187 0.371127 -2.044811 -6.679000 -2.889917 -10.328305 5.939989 -3.196814 11.400937 3.661600 -1.730300 8.047100 -5.473000 1.052761 -1.678391 -51.536105 -43.355117 29.960177 88.705339 -61.380617 -61.549015 0.869796 -0.509869 18.831407 16.125909 35.667857 9.056700 -7.125000 0.000000 0.000000 -24.136400 65.499800 -12.274700 2.078024 -0.638694 -0.918235 45.258682 42.321015 29.313371 -106.403769 57.661953 -73.346827 -0.310410 -0.210101 9.028079 -10.929523 39.108210 -6.812500 7.125000 0.000000 0.000000 12.576900 9.079600 14.735500 
24.938578 18.462186 24.345019 -9.475625 71.249373 -8.685731 -3.490598 -0.250764 2.033531 -9.457361 -0.609200 -2.127532 -0.251411 6.627793 17.941265 -0.501579 4.333116 -4.403119 0.248600 -3.208100 -8.858600 0.334958 0.167430 -0.940773 19.943808 -3.085603 -0.883406 -0.613132 -6.644991 17.699509 1.216579 -9.755529 -9.383057 -0.000200 0.087300 -0.239800 0.858148 0.492900 2.165594 0.882666 0.241366 -3.658908 4.211793 0.366812 -1.918678 -6.668757 -2.914232 -10.495953 5.763396 -3.214926 11.427386 3.579200 -1.752000 8.089200 -5.456676 1.053718 -1.673486 -51.528385 -43.364286 30.075347 88.533351 -61.376537 -61.403294 0.887460 -0.522364 18.567742 17.233978 34.611842 9.492200 -7.125000 0.000000 0.000000 -21.778300 64.874300 -10.707000 2.092150 -0.662427 -0.931021 45.099725 42.624282 29.429452 -106.136681 57.703841 -73.094703 -0.312308 -0.214072 8.657327 -11.454036 39.099128 -7.150400 7.125000 0.000000 0.000000 12.310200 9.159500 14.423200 
